# xmcd CD database file
#
# Track frame offsets:
#	150
#	31758
#	57707
#	80788
#	103208
#	119512
#
# Disc length: 1948 seconds
#
# Revision: 0
# Processed by: cddbd v1.5.1PL0 Copyright (c) Steve Scherf et al.
# Submitted via: CDex 1.51
#
DISCID=53079a06
DTITLE=Spark That Screams - Spark That Screams
DYEAR=2004
DGENRE=Rhythmic Soul
TTITLE0=1516
TTITLE1=You Won't Like What This Means
TTITLE2=Bomb The Bridges
TTITLE3=We Are Them, They Are Us
TTITLE4=One Drop
TTITLE5=A Way Out
EXTD=YEAR: 2004
EXTT0=
EXTT1=
EXTT2=
EXTT3=
EXTT4=
EXTT5=
PLAYORDER=
